o wheel
v 0.118817 0.353553 -0.353553
v 0.241567 0.000420 -0.252827
v 0.118817 0.500000 -0.000000
v 0.241567 -0.178356 -0.178775
v 0.118817 0.353553 0.353553
v 0.241567 -0.252407 0.000000
v 0.118817 0.000000 0.500000
v 0.241567 -0.178356 0.178775
v 0.118817 -0.353553 0.353553
v 0.241567 0.000420 0.252827
v 0.118817 -0.500000 0.000000
v 0.241567 0.179195 0.178775
v 0.118817 -0.353553 -0.353553
v 0.241567 0.253246 -0.000000
v 0.118817 -0.000000 -0.500000
v 0.241567 0.179195 -0.178775
v 0.204816 0.000420 -0.483634
v 0.204816 0.342401 -0.341981
v 0.204816 0.484054 -0.000000
v 0.204816 0.342401 0.341981
v 0.204816 0.000420 0.483634
v 0.204816 -0.341561 0.341981
v 0.202567 -0.500000 0.000000
v 0.204816 -0.341561 -0.341981
v 0.285825 -0.312593 -0.313012
v 0.285825 0.000420 -0.442666
v 0.285825 -0.442247 0.000000
v 0.285825 -0.312593 0.313012
v 0.285825 0.000420 0.442666
v 0.285825 0.313432 0.313012
v 0.285825 0.443086 -0.000000
v 0.285825 0.313432 -0.313012
v 0.314592 -0.262015 -0.262434
v 0.314592 0.000420 -0.371138
v 0.314592 -0.370718 0.000000
v 0.314592 -0.262015 0.262434
v 0.314592 0.000420 0.371138
v 0.314592 0.262854 0.262434
v 0.314592 0.371558 -0.000000
v 0.314592 0.262854 -0.262434
v 0.314592 -0.224712 -0.225131
v 0.314592 0.000420 -0.318384
v 0.314592 -0.317964 0.000000
v 0.314592 -0.224712 0.225131
v 0.314592 0.000420 0.318384
v 0.314592 0.225551 0.225131
v 0.314592 0.318803 -0.000000
v 0.314592 0.225551 -0.225131
v -0.118817 0.353553 -0.353553
v -0.241567 0.000420 -0.252827
v -0.118817 0.500000 -0.000000
v -0.241567 -0.178356 -0.178775
v -0.118817 0.353553 0.353553
v -0.241567 -0.252407 0.000000
v -0.118817 0.000000 0.500000
v -0.241567 -0.178356 0.178775
v -0.118817 -0.353553 0.353553
v -0.241567 0.000420 0.252827
v -0.118817 -0.500000 0.000000
v -0.241567 0.179195 0.178775
v -0.118817 -0.353553 -0.353553
v -0.241567 0.253246 -0.000000
v -0.118817 0.000000 -0.500000
v -0.241567 0.179195 -0.178775
v -0.000000 -0.000000 -0.504355
v -0.000000 -0.356633 -0.356633
v -0.000000 -0.504355 0.000000
v -0.000000 -0.356633 0.356633
v 0.000000 0.000000 0.504355
v 0.000000 0.356633 0.356632
v 0.000000 0.504355 -0.000000
v 0.000000 0.356633 -0.356632
v -0.204816 0.000420 -0.483634
v -0.204816 0.342401 -0.341981
v -0.204816 0.484054 -0.000000
v -0.204816 0.342401 0.341981
v -0.204816 0.000420 0.483634
v -0.204816 -0.341561 0.341981
v -0.202567 -0.500000 0.000000
v -0.204816 -0.341561 -0.341981
v -0.285825 -0.312593 -0.313012
v -0.285825 0.000420 -0.442666
v -0.285825 -0.442247 0.000000
v -0.285825 -0.312593 0.313012
v -0.285825 0.000420 0.442666
v -0.285825 0.313432 0.313012
v -0.285825 0.443086 -0.000000
v -0.285825 0.313432 -0.313012
v -0.314592 -0.262015 -0.262434
v -0.314592 0.000420 -0.371138
v -0.314592 -0.370718 0.000000
v -0.314592 -0.262015 0.262434
v -0.314592 0.000420 0.371138
v -0.314592 0.262854 0.262434
v -0.314592 0.371558 -0.000000
v -0.314592 0.262854 -0.262434
v -0.314592 -0.224712 -0.225131
v -0.314592 0.000420 -0.318384
v -0.314592 -0.317964 0.000000
v -0.314592 -0.224712 0.225131
v -0.314592 0.000420 0.318384
v -0.314592 0.225551 0.225131
v -0.314592 0.318803 -0.000000
v -0.314592 0.225551 -0.225131
vt 0.414395 0.462332
vt 0.387926 0.612519
vt 0.378124 0.462600
vt 0.486392 0.779404
vt 0.428064 0.809035
vt 0.472265 0.162929
vt 0.384506 0.317456
vt 0.418474 0.135787
vt 0.422204 0.323382
vt 0.378765 0.462294
vt 0.415089 0.461816
vt 0.389440 0.610974
vt 0.487972 0.776727
vt 0.434726 0.803163
vt 0.689105 0.245736
vt 0.958968 0.357517
vt 0.847187 0.627380
vt 0.471118 0.163815
vt 0.384728 0.318567
vt 0.422384 0.142137
vt 0.422126 0.324392
vt 0.348744 0.315557
vt 0.344502 0.463361
vt 0.350052 0.616299
vt 0.298268 0.826537
vt 0.299352 0.617465
vt 0.300155 0.462834
vt 0.300931 0.313129
vt 0.301909 0.124676
vt 0.351710 0.614941
vt 0.302027 0.827055
vt 0.301317 0.616535
vt 0.345135 0.462354
vt 0.300797 0.462191
vt 0.348408 0.314476
vt 0.300292 0.312458
vt 0.370511 0.127257
vt 0.299656 0.123727
vt 0.372851 0.128869
vt 0.380790 0.818067
vt 0.376223 0.818550
vt 0.462969 0.597798
vt 0.447008 0.462181
vt 0.524563 0.747048
vt 0.427658 0.605222
vt 0.454765 0.329839
vt 0.506007 0.191939
vt 0.447679 0.461520
vt 0.464230 0.596827
vt 0.525766 0.744657
vt 0.429157 0.604407
vt 0.454529 0.330780
vt 0.505057 0.192711
vt 0.471160 0.462127
vt 0.547407 0.723844
vt 0.488865 0.591534
vt 0.478629 0.335498
vt 0.526547 0.211599
vt 0.471814 0.461379
vt 0.489975 0.590495
vt 0.548379 0.721614
vt 0.525702 0.212299
vt 0.478333 0.336404
vt 0.542954 0.576971
vt 0.524392 0.461385
vt 0.593902 0.685841
vt 0.530714 0.348030
vt 0.571719 0.245054
vt 0.543768 0.575851
vt 0.524976 0.460497
vt 0.594489 0.683835
vt 0.530381 0.348896
vt 0.571058 0.245631
vt 0.210835 0.611600
vt 0.185926 0.461146
vt 0.222192 0.461791
vt 0.110643 0.777455
vt 0.171181 0.603891
vt 0.216115 0.318023
vt 0.127316 0.164092
vt 0.180923 0.136587
vt 0.222832 0.462819
vt 0.178457 0.324203
vt 0.213159 0.611568
vt 0.186506 0.462586
vt 0.169170 0.804058
vt 0.173399 0.605269
vt 0.689347 0.249026
vt 0.959210 0.360807
vt 0.847429 0.630670
vt 0.181260 0.140886
vt 0.179627 0.323134
vt 0.132304 0.162057
vt 0.217083 0.317697
vt 0.253096 0.315060
vt 0.220400 0.817741
vt 0.248668 0.615773
vt 0.255804 0.462901
vt 0.230927 0.128132
vt 0.250915 0.615281
vt 0.256462 0.462653
vt 0.252192 0.314800
vt 0.228827 0.127735
vt 0.223205 0.818598
vt 0.135948 0.596101
vt 0.153316 0.460657
vt 0.072809 0.744704
vt 0.145941 0.330880
vt 0.093770 0.193328
vt 0.153914 0.462510
vt 0.138276 0.597926
vt 0.077737 0.746167
vt 0.147159 0.329185
vt 0.098066 0.190599
vt 0.129166 0.460352
vt 0.110119 0.589569
vt 0.050208 0.721264
vt 0.122116 0.336700
vt 0.073363 0.213126
vt 0.129779 0.462532
vt 0.112489 0.591767
vt 0.054970 0.723277
vt 0.123298 0.334562
vt 0.077220 0.209972
vt 0.056184 0.574446
vt 0.075944 0.459058
vt 0.004110 0.682781
vt 0.070116 0.349582
vt 0.028418 0.246885
vt 0.076613 0.462008
vt 0.058598 0.577486
vt 0.008606 0.685810
vt 0.071123 0.346513
vt 0.031520 0.242831
vt 0.577325 0.515599
vt 0.577325 0.357517
vt 0.847187 0.245736
vt 0.958968 0.515599
vt 0.689105 0.627380
vt 0.168660 0.807689
vt 0.115747 0.777982
vt 0.689347 0.630670
vt 0.577567 0.518889
vt 0.577567 0.360807
vt 0.847429 0.249026
vt 0.959210 0.518889
vn 0.4233 -0.3467 -0.8370
vn 0.5333 -0.7689 -0.3527
vn 0.5333 -0.7689 0.3527
vn 0.4233 -0.3467 0.8370
vn 0.4233 0.3467 0.8370
vn 0.4233 0.8370 0.3467
vn 1.0000 0.0000 0.0000
vn 0.4233 0.8370 -0.3467
vn 0.4233 0.3467 -0.8370
vn 0.1714 0.3770 -0.9102
vn 0.0338 -0.9234 -0.3825
vn 0.0338 0.3825 -0.9234
vn 0.0338 0.9234 -0.3825
vn 0.0338 0.9234 0.3825
vn 0.0338 0.3825 0.9234
vn 0.0338 -0.3825 0.9234
vn 0.0338 -0.9234 0.3825
vn 0.0338 -0.3825 -0.9234
vn 0.1688 0.9106 -0.3772
vn 0.1688 0.9106 0.3772
vn 0.1714 0.3770 0.9102
vn 0.1749 -0.3768 0.9096
vn 0.1775 -0.9092 0.3766
vn 0.1775 -0.9092 -0.3766
vn 0.1749 -0.3768 -0.9096
vn 0.9169 -0.1527 -0.3688
vn 0.9169 -0.3688 -0.1527
vn 0.9169 -0.3688 0.1527
vn 0.9169 -0.1527 0.3688
vn 0.9169 0.1527 0.3688
vn 0.9169 0.3688 0.1527
vn 0.9169 0.3688 -0.1527
vn 0.9169 0.1527 -0.3688
vn 0.6384 0.2946 0.7111
vn 0.6384 0.7111 0.2946
vn 0.6384 0.7111 -0.2946
vn 0.6384 0.2946 -0.7111
vn 0.6384 -0.2946 -0.7111
vn 0.6384 -0.7111 -0.2946
vn 0.6384 -0.7111 0.2946
vn 0.6384 -0.2946 0.7111
vn -0.4233 -0.3467 -0.8370
vn -0.4233 -0.8370 -0.3467
vn -0.5333 -0.7689 0.3527
vn -0.4233 -0.3467 0.8370
vn -0.4233 0.3467 0.8370
vn -0.4233 0.8370 0.3467
vn -1.0000 0.0000 -0.0000
vn -0.4233 0.8370 -0.3467
vn -0.4233 0.3467 -0.8370
vn -0.1714 0.3770 -0.9102
vn -0.0338 -0.9234 -0.3825
vn -0.0338 0.3825 -0.9234
vn -0.0338 0.9234 -0.3825
vn -0.0338 0.9234 0.3825
vn -0.0338 0.3825 0.9234
vn -0.0338 -0.3825 0.9234
vn -0.0338 -0.9234 0.3825
vn -0.0338 -0.3825 -0.9234
vn -0.1688 0.9106 -0.3772
vn -0.1688 0.9106 0.3772
vn -0.1714 0.3770 0.9102
vn -0.1749 -0.3768 0.9096
vn 0.0000 -0.9074 0.4204
vn -0.1775 -0.9092 -0.3766
vn -0.1749 -0.3768 -0.9096
vn -0.9169 -0.1527 -0.3688
vn -0.9169 -0.3688 -0.1527
vn -0.9169 -0.3688 0.1527
vn -0.9169 -0.1527 0.3688
vn -0.9169 0.1527 0.3688
vn -0.9169 0.3688 0.1527
vn -0.9169 0.3688 -0.1527
vn -0.9169 0.1527 -0.3688
vn -0.6384 0.2946 0.7111
vn -0.6384 0.7111 0.2946
vn -0.6384 0.7111 -0.2946
vn -0.6384 0.2946 -0.7111
vn -0.6384 -0.2946 -0.7111
vn -0.6384 -0.7111 -0.2946
vn -0.6384 -0.7111 0.2946
vn -0.6384 -0.2946 0.7111
vn 0.4233 -0.8370 -0.3467
vn 0.4233 -0.8370 0.3467
vn 0.0000 -0.9074 -0.4204
vn -0.5333 -0.7689 -0.3527
vn -0.4233 -0.8370 0.3467
vn -0.1775 -0.9092 0.3766
s off
f 26/1/1 24/2/1 17/3/1
f 24/2/2 27/4/2 23/5/2
f 27/6/3 22/7/3 23/8/3
f 28/9/4 21/10/4 22/7/4
f 29/11/5 20/12/5 21/10/5
f 20/12/6 31/13/6 19/14/6
f 2/15/7 14/16/7 10/17/7
f 31/18/8 18/19/8 19/20/8
f 32/21/9 17/3/9 18/19/9
f 1/22/10 17/3/10 15/23/10
f 13/24/11 67/25/11 66/26/11
f 1/22/12 65/27/12 72/28/12
f 71/29/13 1/22/13 72/28/13
f 5/30/14 71/31/14 70/32/14
f 7/33/15 70/32/15 69/34/15
f 9/35/16 69/34/16 68/36/16
f 11/37/17 68/36/17 67/38/17
f 15/23/18 66/26/18 65/27/18
f 3/39/19 18/19/19 1/22/19
f 20/12/20 3/40/20 5/30/20
f 21/10/21 5/30/21 7/33/21
f 22/7/22 7/33/22 9/35/22
f 11/37/23 22/7/23 9/35/23
f 24/2/24 11/41/24 13/24/24
f 15/23/25 24/2/25 13/24/25
f 33/42/26 26/1/26 34/43/26
f 35/44/27 25/45/27 33/42/27
f 36/46/28 27/6/28 35/47/28
f 37/48/29 28/9/29 36/46/29
f 38/49/30 29/11/30 37/48/30
f 39/50/31 30/51/31 38/49/31
f 40/52/32 31/18/32 39/53/32
f 34/43/33 32/21/33 40/52/33
f 42/54/7 33/42/7 34/43/7
f 43/55/7 33/42/7 41/56/7
f 44/57/7 35/47/7 43/58/7
f 45/59/7 36/46/7 44/57/7
f 46/60/7 37/48/7 45/59/7
f 47/61/7 38/49/7 46/60/7
f 47/62/7 40/52/7 39/53/7
f 42/54/7 40/52/7 48/63/7
f 4/64/34 42/54/34 2/65/34
f 6/66/35 41/56/35 4/64/35
f 8/67/36 43/58/36 6/68/36
f 8/67/37 45/59/37 44/57/37
f 12/69/38 45/59/38 10/70/38
f 14/71/39 46/60/39 12/69/39
f 16/72/40 47/62/40 14/73/40
f 2/65/41 48/63/41 16/72/41
f 80/74/42 82/75/42 73/76/42
f 80/74/43 83/77/43 81/78/43
f 78/79/44 83/80/44 79/81/44
f 77/82/45 84/83/45 78/79/45
f 76/84/46 85/85/46 77/82/46
f 75/86/47 86/87/47 76/84/47
f 58/88/48 62/89/48 50/90/48
f 75/91/49 88/92/49 87/93/49
f 73/76/50 88/92/50 74/94/50
f 49/95/51 73/76/51 74/94/51
f 66/26/52 59/96/52 61/97/52
f 72/28/53 63/98/53 49/95/53
f 72/28/54 51/99/54 71/29/54
f 71/31/55 53/100/55 70/32/55
f 70/32/56 55/101/56 69/34/56
f 69/34/57 57/102/57 68/36/57
f 68/36/58 59/103/58 67/38/58
f 66/26/59 63/98/59 65/27/59
f 51/99/60 74/94/60 75/91/60
f 51/104/61 76/84/61 53/100/61
f 53/100/62 77/82/62 55/101/62
f 55/101/63 78/79/63 57/102/63
f 59/103/64 78/79/64 79/81/64
f 59/96/65 80/74/65 61/97/65
f 63/98/66 80/74/66 73/76/66
f 82/75/67 89/105/67 90/106/67
f 81/78/68 91/107/68 89/105/68
f 83/80/69 92/108/69 91/109/69
f 84/83/70 93/110/70 92/108/70
f 85/85/71 94/111/71 93/110/71
f 86/87/72 95/112/72 94/111/72
f 87/93/73 96/113/73 95/114/73
f 88/92/74 90/106/74 96/113/74
f 98/115/48 89/105/48 97/116/48
f 89/105/48 99/117/48 97/116/48
f 91/109/48 100/118/48 99/119/48
f 92/108/48 101/120/48 100/118/48
f 93/110/48 102/121/48 101/120/48
f 102/121/48 95/112/48 103/122/48
f 95/114/48 104/123/48 103/124/48
f 96/113/48 98/115/48 104/123/48
f 98/115/75 52/125/75 50/126/75
f 97/116/76 54/127/76 52/125/76
f 99/119/77 56/128/77 54/129/77
f 100/118/78 58/130/78 56/128/78
f 101/120/79 60/131/79 58/130/79
f 102/121/80 62/132/80 60/131/80
f 103/124/81 64/133/81 62/134/81
f 104/123/82 50/126/82 64/133/82
f 26/1/1 25/45/1 24/2/1
f 24/2/83 25/45/83 27/4/83
f 27/6/84 28/9/84 22/7/84
f 28/9/4 29/11/4 21/10/4
f 29/11/5 30/51/5 20/12/5
f 20/12/6 30/51/6 31/13/6
f 6/135/7 4/136/7 2/15/7
f 2/15/7 16/137/7 14/16/7
f 14/16/7 12/138/7 10/17/7
f 10/17/7 8/139/7 6/135/7
f 6/135/7 2/15/7 10/17/7
f 31/18/8 32/21/8 18/19/8
f 32/21/9 26/1/9 17/3/9
f 1/22/10 18/19/10 17/3/10
f 13/24/11 11/41/11 67/25/11
f 1/22/12 15/23/12 65/27/12
f 71/29/13 3/39/13 1/22/13
f 5/30/14 3/40/14 71/31/14
f 7/33/15 5/30/15 70/32/15
f 9/35/16 7/33/16 69/34/16
f 11/37/17 9/35/17 68/36/17
f 15/23/18 13/24/18 66/26/18
f 3/39/19 19/20/19 18/19/19
f 20/12/20 19/14/20 3/40/20
f 21/10/21 20/12/21 5/30/21
f 22/7/22 21/10/22 7/33/22
f 11/37/64 23/8/64 22/7/64
f 24/2/85 23/5/85 11/41/85
f 15/23/25 17/3/25 24/2/25
f 33/42/26 25/45/26 26/1/26
f 35/44/27 27/4/27 25/45/27
f 36/46/28 28/9/28 27/6/28
f 37/48/29 29/11/29 28/9/29
f 38/49/30 30/51/30 29/11/30
f 39/50/31 31/13/31 30/51/31
f 40/52/32 32/21/32 31/18/32
f 34/43/33 26/1/33 32/21/33
f 42/54/7 41/56/7 33/42/7
f 43/55/7 35/44/7 33/42/7
f 44/57/7 36/46/7 35/47/7
f 45/59/7 37/48/7 36/46/7
f 46/60/7 38/49/7 37/48/7
f 47/61/7 39/50/7 38/49/7
f 47/62/7 48/63/7 40/52/7
f 42/54/7 34/43/7 40/52/7
f 4/64/34 41/56/34 42/54/34
f 6/66/35 43/55/35 41/56/35
f 8/67/36 44/57/36 43/58/36
f 8/67/37 10/70/37 45/59/37
f 12/69/38 46/60/38 45/59/38
f 14/71/39 47/61/39 46/60/39
f 16/72/40 48/63/40 47/62/40
f 2/65/41 42/54/41 48/63/41
f 80/74/42 81/78/42 82/75/42
f 80/74/86 79/140/86 83/77/86
f 78/79/87 84/83/87 83/80/87
f 77/82/45 85/85/45 84/83/45
f 76/84/46 86/87/46 85/85/46
f 75/86/47 87/141/47 86/87/47
f 50/90/48 52/142/48 54/143/48
f 54/143/48 56/144/48 58/88/48
f 58/88/48 60/145/48 62/89/48
f 62/89/48 64/146/48 50/90/48
f 50/90/48 54/143/48 58/88/48
f 75/91/49 74/94/49 88/92/49
f 73/76/50 82/75/50 88/92/50
f 49/95/51 63/98/51 73/76/51
f 66/26/52 67/25/52 59/96/52
f 72/28/53 65/27/53 63/98/53
f 72/28/54 49/95/54 51/99/54
f 71/31/55 51/104/55 53/100/55
f 70/32/56 53/100/56 55/101/56
f 69/34/57 55/101/57 57/102/57
f 68/36/58 57/102/58 59/103/58
f 66/26/59 61/97/59 63/98/59
f 51/99/60 49/95/60 74/94/60
f 51/104/61 75/86/61 76/84/61
f 53/100/62 76/84/62 77/82/62
f 55/101/63 77/82/63 78/79/63
f 59/103/88 57/102/88 78/79/88
f 59/96/85 79/140/85 80/74/85
f 63/98/66 61/97/66 80/74/66
f 82/75/67 81/78/67 89/105/67
f 81/78/68 83/77/68 91/107/68
f 83/80/69 84/83/69 92/108/69
f 84/83/70 85/85/70 93/110/70
f 85/85/71 86/87/71 94/111/71
f 86/87/72 87/141/72 95/112/72
f 87/93/73 88/92/73 96/113/73
f 88/92/74 82/75/74 90/106/74
f 98/115/48 90/106/48 89/105/48
f 89/105/48 91/107/48 99/117/48
f 91/109/48 92/108/48 100/118/48
f 92/108/48 93/110/48 101/120/48
f 93/110/48 94/111/48 102/121/48
f 102/121/48 94/111/48 95/112/48
f 95/114/48 96/113/48 104/123/48
f 96/113/48 90/106/48 98/115/48
f 98/115/75 97/116/75 52/125/75
f 97/116/76 99/117/76 54/127/76
f 99/119/77 100/118/77 56/128/77
f 100/118/78 101/120/78 58/130/78
f 101/120/79 102/121/79 60/131/79
f 102/121/80 103/122/80 62/132/80
f 103/124/81 104/123/81 64/133/81
f 104/123/82 98/115/82 50/126/82
